# xmcd
#
# Track frame offsets:
#   150
#   22334
#   39856
#   59703
#   80455
#   98363
#   118533
#   152578
#   173575
#   189480
#
# Disc length: 2791 seconds
#
# Revision: 0
# Processed by: cddbd v1.4PL0 Copyright (c) Steve Scherf et al.
# Submitted via: uFREEDB 1.6.0
#
DISCID=730ae50a
DTITLE=Cheyenne - Influencias
DYEAR=2000
DGENRE=Alternative
TTITLE0=Amada Amante
TTITLE1=Amor Libre
TTITLE2=Gavilan o Paloma
TTITLE3=La vida sigue igual
TTITLE4=Paso la vida pensando
TTITLE5=Pavo Real Agarense de las manos
TTITLE6=Pedro Navaja
TTITLE7=Querida
TTITLE8=Una muchacha y una guitarra
TTITLE9=Yo soy aquel
EXTD=
EXTT0=
EXTT1=
EXTT2=
EXTT3=
EXTT4=
EXTT5=
EXTT6=
EXTT7=
EXTT8=
EXTT9=
PLAYORDER=
